<svg id="Layer_1" data-name="Layer 1" xmlns="http://www.w3.org/2000/svg" viewBox="0 0 102 40"><defs><style>.cls-1{fill:#145af7;}</style></defs><path class="cls-1" d="M78.75,38c-3,0-6.09,0-9.13,0a8.48,8.48,0,0,1-5.49-2.08A9,9,0,0,1,60.91,30a4.9,4.9,0,0,1-.07-.77c0-5.38,0-10.76,0-16.14a8.77,8.77,0,0,1,2.71-6.28,8.32,8.32,0,0,1,6.17-2.57H78.4a1.12,1.12,0,0,1,1.24,1.1,1.15,1.15,0,0,1-1.25,1.07c-2.91,0-5.81,0-8.71,0a6.72,6.72,0,0,0-6.6,5.82A6.48,6.48,0,0,0,63,13c0,5.36,0,10.71,0,16.07a6.9,6.9,0,0,0,5.11,6.52,7.35,7.35,0,0,0,1.75.21c5.92,0,11.85,0,17.77,0a6.87,6.87,0,0,0,6.67-5.27,8.3,8.3,0,0,0,.22-1.86c0-2.27,0-4.55,0-6.82a1.06,1.06,0,0,1,1.24-1.13A1.12,1.12,0,0,1,96.7,22c0,1.63,0,3.27,0,4.9,0,.88,0,1.76-.06,2.63a8.86,8.86,0,0,1-2.71,5.88,8.75,8.75,0,0,1-5.3,2.52,12.39,12.39,0,0,1-1.49.07H78.75Z"/><path class="cls-1" d="M86,24.85a1.18,1.18,0,0,1-1.13-.91c-.33-1-.62-2-1-2.93a7.94,7.94,0,0,0-5.32-4.62c-.62-.19-1.25-.34-1.88-.51a1.12,1.12,0,0,1-.89-1.13,1.18,1.18,0,0,1,.88-1.18c1.06-.31,2.14-.57,3.17-1a7.38,7.38,0,0,0,4.42-4.94c.23-.69.43-1.4.65-2.09a1.21,1.21,0,0,1,1.16-1,1.29,1.29,0,0,1,1.16,1,30.11,30.11,0,0,0,1.1,3.24A7.28,7.28,0,0,0,93,12.92c.75.24,1.51.44,2.27.65a1.19,1.19,0,0,1,1,1.13,1.22,1.22,0,0,1-1,1.2c-1.07.33-2.16.6-3.19,1a7.66,7.66,0,0,0-4.46,5.27c-.17.58-.33,1.16-.51,1.73A1.16,1.16,0,0,1,86,24.85Z"/><path class="cls-1" d="M78.58,23.72a.76.76,0,0,1-.6.77c-.42.16-.85.27-1.26.45a4,4,0,0,0-2.12,2.54c-.07.21-.13.42-.21.63a.74.74,0,0,1-.73.56.76.76,0,0,1-.76-.54c-.12-.34-.23-.69-.37-1a3.94,3.94,0,0,0-2.77-2.47l-.27-.07c-.55-.16-.84-.47-.82-.89s.31-.69.81-.86a8.14,8.14,0,0,0,1.46-.6,4.19,4.19,0,0,0,1.84-2.6,3.66,3.66,0,0,1,.15-.43.75.75,0,0,1,.68-.49.76.76,0,0,1,.72.48,4.43,4.43,0,0,1,.26.69,4.11,4.11,0,0,0,3,2.89,3.35,3.35,0,0,1,.53.19A.78.78,0,0,1,78.58,23.72Z"/><path class="cls-1" d="M97.17,6.05c-.18.14-.27.28-.4.32a2.25,2.25,0,0,0-1.5,1.48.46.46,0,0,1-.33.26c-.09,0-.25-.14-.29-.26a2.27,2.27,0,0,0-1.5-1.48A.45.45,0,0,1,92.87,6a.51.51,0,0,1,.3-.33,2,2,0,0,0,1.14-.79c.13-.2.2-.43.33-.63S94.84,4,95,4a.47.47,0,0,1,.32.27,2.18,2.18,0,0,0,1.49,1.44C96.89,5.75,97,5.9,97.17,6.05Z"/><path d="M10.73,19.47a7.77,7.77,0,0,1,1.08-1.64,4.58,4.58,0,0,1,1.4-1.1,3.79,3.79,0,0,1,1.75-.4,4.54,4.54,0,0,1,4.21,2.51,5.84,5.84,0,0,1,.62,2.75,5.44,5.44,0,0,1-.46,2.24A3.77,3.77,0,0,1,18,25.44a4,4,0,0,1-2.24.61,4.61,4.61,0,0,1-1.43-.24,15,15,0,0,1-1.46-.53l-1.28-.53a2.8,2.8,0,0,0-.95-.23.72.72,0,0,0-.59.29,2.19,2.19,0,0,0-.36.85,8.92,8.92,0,0,0-.17,1.39c0,.55,0,1.19,0,1.9s0,1.25,0,1.83,0,1.11.08,1.59.07.9.1,1.26H6.79c0-.83-.09-1.63-.12-2.39s0-1.51,0-2.24c0-1,0-1.94.09-2.8a9.75,9.75,0,0,1,.43-2.27,3.77,3.77,0,0,1,1-1.61,3.36,3.36,0,0,1,1.78-.83A13.08,13.08,0,0,1,10.73,19.47Zm6.08,1a2.1,2.1,0,0,0-.72-.84A1.81,1.81,0,0,0,15,19.26a1.53,1.53,0,0,0-.84.24,2.28,2.28,0,0,0-.66.62A5.75,5.75,0,0,0,13,21a8.85,8.85,0,0,0-.38,1l1.28.54a10.56,10.56,0,0,0,1.07.4,2.81,2.81,0,0,0,.8.15,1.12,1.12,0,0,0,1-.44,1.82,1.82,0,0,0,.31-1.06A2.46,2.46,0,0,0,16.81,20.42Z"/><path d="M25.42,8.85V20.2a3.28,3.28,0,0,0,.48,2,2.12,2.12,0,0,0,1.7.57h.3v3h-.3a4.85,4.85,0,0,1-3.79-1.35,6.05,6.05,0,0,1-1.2-4.12V8.85Z"/><path d="M33.69,17.59l.23,3.24A2.75,2.75,0,0,0,34.2,22a1.47,1.47,0,0,0,.7.65,2.85,2.85,0,0,0,1.17.21h.26v3H36a4.94,4.94,0,0,1-1.5-.21,3.77,3.77,0,0,1-1.15-.58,4.27,4.27,0,0,1-.86-.89,4.6,4.6,0,0,1-1.74,1.25,5.68,5.68,0,0,1-2.2.43H27.41v-3h1.18a2.87,2.87,0,0,0,2-.54,2.53,2.53,0,0,0,.56-1.85c0-.45,0-.88,0-1.3s-.05-.82-.09-1.22Zm-.12-4-2,2-2-2,2-2Z"/><path d="M38.1,29.49l-2,2-1.93-2,1.93-1.93Zm-1.31-6.68v3h-1v-3Zm6-5.22L43,20.83A2.75,2.75,0,0,0,43.27,22a1.47,1.47,0,0,0,.7.65,2.85,2.85,0,0,0,1.17.21h.26v3h-.28a5,5,0,0,1-1.51-.21,3.77,3.77,0,0,1-1.15-.58,4.27,4.27,0,0,1-.86-.89,4.52,4.52,0,0,1-1.74,1.25,5.68,5.68,0,0,1-2.2.43H36.48v-3h1.18a2.87,2.87,0,0,0,2-.54,2.53,2.53,0,0,0,.56-1.85c0-.45,0-.88,0-1.3s0-.82-.09-1.22Zm-.57,11.9-1.95,2-1.94-2,1.94-1.93Z"/><path d="M45.48,22.81v3H44.9v-3Zm-.33,3v-3h2a1.53,1.53,0,0,0,1.42-.62,3.07,3.07,0,0,0,.38-1.59,9.66,9.66,0,0,0-.18-1.77c-.12-.63-.24-1.26-.37-1.89l2.8-.71c.15.72.27,1.43.35,2.13a15.89,15.89,0,0,1,.13,2,8.67,8.67,0,0,1-.42,2.8,3.88,3.88,0,0,1-1.41,2,4.58,4.58,0,0,1-2.7.71Zm4.3,3.64-2,2-2-2,2-2Z"/></svg>