<svg id="Layer_1" data-name="Layer 1" xmlns="http://www.w3.org/2000/svg" viewBox="0 0 50 50"><defs><style>.cls-1{fill:#145af7;}</style></defs><path class="cls-1" d="M24.69,46.26c-3.81,0-7.62,0-11.43,0a10.66,10.66,0,0,1-6.87-2.6,11.31,11.31,0,0,1-4-7.37,7.93,7.93,0,0,1-.08-1c0-6.73,0-13.46,0-20.19A11.08,11.08,0,0,1,5.67,7.26,10.45,10.45,0,0,1,13.4,4H24.25A1.41,1.41,0,0,1,25.8,5.42a1.43,1.43,0,0,1-1.57,1.34c-3.63,0-7.26,0-10.9,0A8.4,8.4,0,0,0,5.08,14,8.14,8.14,0,0,0,5,15Q5,25,5,35.11a8.61,8.61,0,0,0,6.4,8.15,8.86,8.86,0,0,0,2.18.28c7.42,0,14.83,0,22.24,0A8.58,8.58,0,0,0,44.16,37a10.07,10.07,0,0,0,.27-2.32c0-2.85,0-5.7,0-8.54A1.33,1.33,0,0,1,46,24.69a1.4,1.4,0,0,1,1.16,1.55c0,2,0,4.09,0,6.14,0,1.09,0,2.19-.08,3.28A11.07,11.07,0,0,1,43.68,43a10.94,10.94,0,0,1-6.63,3.15,16.55,16.55,0,0,1-1.86.09H24.69Z"/><path class="cls-1" d="M33.74,29.82a1.45,1.45,0,0,1-1.4-1.14c-.42-1.23-.79-2.47-1.29-3.67a9.88,9.88,0,0,0-6.66-5.78c-.77-.24-1.56-.42-2.34-.63a1.44,1.44,0,0,1-1.12-1.42A1.47,1.47,0,0,1,22,15.71c1.32-.4,2.68-.71,4-1.22a9.26,9.26,0,0,0,5.54-6.18c.28-.87.53-1.75.8-2.62A1.53,1.53,0,0,1,33.8,4.43a1.6,1.6,0,0,1,1.44,1.29c.44,1.36.81,2.75,1.38,4.05a9.1,9.1,0,0,0,5.91,5.12c.94.31,1.89.55,2.85.81a1.48,1.48,0,0,1,0,2.92c-1.34.41-2.71.75-4,1.28a9.61,9.61,0,0,0-5.58,6.6c-.21.73-.41,1.45-.63,2.17A1.47,1.47,0,0,1,33.74,29.82Z"/><path class="cls-1" d="M24.48,28.4a1,1,0,0,1-.75,1c-.53.19-1.08.34-1.58.56A5,5,0,0,0,19.5,33.1c-.09.27-.17.54-.27.8a.93.93,0,0,1-.92.7,1,1,0,0,1-.94-.68c-.16-.43-.3-.86-.46-1.29a5,5,0,0,0-3.47-3.09l-.35-.09c-.68-.19-1-.58-1-1.11s.39-.86,1-1.08a10.05,10.05,0,0,0,1.83-.75,5.27,5.27,0,0,0,2.3-3.25q.08-.27.18-.54a.91.91,0,0,1,.85-.61.94.94,0,0,1,.91.6,8.22,8.22,0,0,1,.33.87,5.11,5.11,0,0,0,3.74,3.61,3.71,3.71,0,0,1,.66.24A1,1,0,0,1,24.48,28.4Z"/><path class="cls-1" d="M47.74,6.29c-.23.18-.35.35-.5.4a2.81,2.81,0,0,0-1.88,1.85.63.63,0,0,1-.42.33c-.11,0-.31-.18-.36-.32A2.81,2.81,0,0,0,42.7,6.7a.6.6,0,0,1-.35-.43.65.65,0,0,1,.39-.42,2.52,2.52,0,0,0,1.42-1c.16-.24.25-.53.4-.78s.26-.35.4-.35a.6.6,0,0,1,.4.34,2.75,2.75,0,0,0,1.86,1.8C47.39,5.92,47.51,6.1,47.74,6.29Z"/></svg>